<svg width="16" height="22" viewBox="0 0 16 22" fill="none" xmlns="http://www.w3.org/2000/svg">
<path d="M12.6163 5.09705C14.3713 6.41784 15.5 8.4748 15.5 10.7844C15.5 14.7702 12.1531 17.9946 8.01125 18C3.86375 18.0054 0.500001 14.7738 0.500001 10.7844C0.500002 8.52532 1.57813 6.50986 3.2675 5.18727C3.33313 5.13674 3.42875 5.14757 3.48125 5.21072L4.22 6.12192C4.27063 6.18327 4.25938 6.27168 4.1975 6.32221C4.04563 6.44129 3.89938 6.5694 3.75875 6.70473C3.21054 7.23046 2.77369 7.85368 2.4725 8.53976C2.1575 9.24887 2 10.0049 2 10.7844C2 11.5639 2.1575 12.3199 2.47063 13.0308C2.7725 13.7183 3.20563 14.3353 3.75688 14.8658C4.30813 15.3963 4.94938 15.8131 5.66375 16.1036C6.40438 16.4049 7.19 16.5565 8 16.5565C8.81 16.5565 9.59563 16.4049 10.3344 16.1036C11.0488 15.8131 11.69 15.3963 12.2413 14.8658C12.7925 14.3353 13.2256 13.7183 13.5275 13.0308C13.8406 12.3199 13.9981 11.5639 13.9981 10.7844C13.9981 10.0049 13.8406 9.24887 13.5275 8.53796C13.2263 7.85188 12.7895 7.22866 12.2413 6.70293C12.0669 6.53512 11.8831 6.37814 11.6919 6.23379L10.9288 7.17386C10.9115 7.19536 10.8882 7.21172 10.8617 7.22107C10.8352 7.23042 10.8065 7.23238 10.7789 7.22673C10.7513 7.22107 10.7259 7.20803 10.7056 7.1891C10.6854 7.17018 10.6711 7.14613 10.6644 7.11973L9.92188 4.19307C9.89938 4.10285 9.97063 4.01444 10.0663 4.01444L13.1975 4C13.3231 4 13.3944 4.13894 13.3156 4.23276L12.6163 5.09705Z" fill="#344054"/>
</svg>
