<svg width="25" height="24" viewBox="0 0 25 24" fill="none" xmlns="http://www.w3.org/2000/svg">
<g clip-path="url(#clip0_1_9456)">
<path d="M24.0234 11.3105C21.4841 5.96143 17.6457 3.26947 12.5002 3.26947C7.35194 3.26947 3.51623 5.96143 0.97694 11.3132C0.875089 11.5289 0.822266 11.7644 0.822266 12.003C0.822266 12.2415 0.875089 12.477 0.97694 12.6927C3.51623 18.0418 7.35462 20.7338 12.5002 20.7338C17.6484 20.7338 21.4841 18.0418 24.0234 12.69C24.2296 12.2561 24.2296 11.7525 24.0234 11.3105ZM12.5002 18.8052C8.17962 18.8052 5.01623 16.6141 2.78498 12.0016C5.01623 7.38911 8.17962 5.19804 12.5002 5.19804C16.8207 5.19804 19.9841 7.38911 22.2153 12.0016C19.9868 16.6141 16.8234 18.8052 12.5002 18.8052ZM12.393 7.28733C9.78944 7.28733 7.67873 9.39804 7.67873 12.0016C7.67873 14.6052 9.78944 16.7159 12.393 16.7159C14.9966 16.7159 17.1073 14.6052 17.1073 12.0016C17.1073 9.39804 14.9966 7.28733 12.393 7.28733ZM12.393 15.0016C10.735 15.0016 9.39301 13.6596 9.39301 12.0016C9.39301 10.3436 10.735 9.00161 12.393 9.00161C14.051 9.00161 15.393 10.3436 15.393 12.0016C15.393 13.6596 14.051 15.0016 12.393 15.0016Z" fill="#FCFCFD"/>
</g>
<defs>
<clipPath id="clip0_1_9456">
<rect width="24" height="24" fill="white" transform="translate(0.5)"/>
</clipPath>
</defs>
</svg>
