<svg width="16" height="22" viewBox="0 0 16 22" fill="none" xmlns="http://www.w3.org/2000/svg">
<path d="M3.38375 5.09705C1.62875 6.41784 0.500001 8.4748 0.500001 10.7844C0.5 14.7702 3.84688 17.9946 7.98875 18C12.1363 18.0054 15.5 14.7738 15.5 10.7844C15.5 8.52532 14.4219 6.50986 12.7325 5.18727C12.6669 5.13674 12.5713 5.14757 12.5188 5.21072L11.78 6.12192C11.7294 6.18327 11.7406 6.27168 11.8025 6.32221C11.9544 6.44129 12.1006 6.5694 12.2413 6.70473C12.7895 7.23046 13.2263 7.85368 13.5275 8.53976C13.8425 9.24887 14 10.0049 14 10.7844C14 11.5639 13.8425 12.3199 13.5294 13.0308C13.2275 13.7183 12.7944 14.3353 12.2431 14.8658C11.6919 15.3963 11.0506 15.8131 10.3363 16.1036C9.59563 16.4049 8.81 16.5565 8 16.5565C7.19 16.5565 6.40438 16.4049 5.66563 16.1036C4.95125 15.8131 4.31 15.3963 3.75875 14.8658C3.2075 14.3353 2.77438 13.7183 2.4725 13.0308C2.15938 12.3199 2.00188 11.5639 2.00188 10.7844C2.00188 10.0049 2.15938 9.24887 2.4725 8.53795C2.77369 7.85188 3.21054 7.22865 3.75875 6.70292C3.93313 6.53512 4.11688 6.37814 4.30813 6.23379L5.07125 7.17386C5.08853 7.19535 5.11176 7.21172 5.13827 7.22107C5.16478 7.23042 5.19349 7.23238 5.22111 7.22673C5.24873 7.22107 5.27413 7.20803 5.29438 7.1891C5.31464 7.17017 5.32894 7.14613 5.33563 7.11973L6.07813 4.19306C6.10063 4.10285 6.02938 4.01443 5.93375 4.01443L2.8025 4C2.67688 4 2.60563 4.13893 2.68438 4.23276L3.38375 5.09705Z" fill="#344054"/>
</svg>
