<svg width="25" height="24" viewBox="0 0 25 24" fill="none" xmlns="http://www.w3.org/2000/svg">
<path d="M7.37916 9.22523C6.75659 8.39514 7.34888 7.21057 8.38649 7.21057H16.613C17.6506 7.21057 18.2429 8.39514 17.6203 9.22523V9.22523C17.1663 9.83066 16.9208 10.567 16.9208 11.3238V15C16.9208 17.2092 15.1299 19 12.9208 19H12.0787C9.86955 19 8.07869 17.2092 8.07869 15V11.3238C8.07869 10.567 7.83323 9.83066 7.37916 9.22523V9.22523Z" stroke="#FCFCFD" stroke-width="1.5"/>
<path d="M13.9736 15.3158L13.9736 10.8948" stroke="#FCFCFD" stroke-linecap="round" stroke-linejoin="round"/>
<path d="M11.0264 15.3158L11.0264 10.8948" stroke="#FCFCFD" stroke-linecap="round" stroke-linejoin="round"/>
<path d="M15.4475 7.21053L15.1665 6.36754C14.8942 5.55086 14.13 5 13.2691 5H11.7311C10.8702 5 10.106 5.55086 9.83373 6.36754L9.55273 7.21053" stroke="#FCFCFD" stroke-width="1.5" stroke-linecap="round"/>
</svg>
