<svg width="49" height="48" viewBox="0 0 49 48" fill="none" xmlns="http://www.w3.org/2000/svg">
<path d="M41.5084 21.0411L41.5105 21.0499L41.5131 21.0586C41.5554 21.2052 41.5704 21.3641 41.556 21.5401L41.5525 21.5831L41.5564 21.6261C41.5586 21.6504 41.559 21.6868 41.559 21.7542L41.559 38.9043C41.559 38.9047 41.559 38.9051 41.559 38.9055C41.5545 40.2006 40.4978 41.2558 39.2044 41.2558H9.80518C9.18201 41.2548 8.58467 41.0068 8.14402 40.5661C7.70347 40.1256 7.45548 39.5284 7.45436 38.9053V21.7542C7.45436 21.6974 7.45791 21.638 7.46276 21.5604L7.46595 21.5093L7.45871 21.4585C7.43649 21.303 7.44802 21.1366 7.49389 20.9637L7.49394 20.9637L7.49533 20.9581L7.49844 20.9509L7.50271 20.9394L12.4199 7.71125L12.426 7.69496L12.4309 7.67828C12.5932 7.12688 13.1058 6.74329 13.6809 6.74329H34.9997C35.5706 6.74329 36.0771 7.11887 36.2472 7.66658L36.2526 7.68421L36.2594 7.70139L41.5069 21.0352L41.5084 21.0411ZM10.7951 18.714L10.5112 19.4042H11.2575H20.4138L20.4185 19.6492C20.4392 20.8001 20.831 21.813 21.58 22.551C22.3305 23.2906 23.3548 23.6605 24.4997 23.6605C25.6749 23.6605 26.6997 23.2668 27.4378 22.5477C28.1762 21.8285 28.5927 20.8179 28.6136 19.6497C28.6136 19.6495 28.6136 19.6493 28.6136 19.6491L28.6183 19.4042H37.5262H38.2804L37.9868 18.7096L34.1571 9.64863L34.028 9.34329H33.6965H14.984H14.649L14.5216 9.6531L10.7951 18.714ZM10.5497 22.0042H10.0497V22.5042V38.1558V38.6558H10.5497H38.4497H38.9497V38.1558V22.5042V22.0042H38.4497H31.1137H30.7837L30.654 22.3077C30.1631 23.4559 29.4094 24.402 28.4497 25.0764L28.4495 25.0765C27.3557 25.8461 25.9912 26.2605 24.5044 26.2605C21.6787 26.2605 19.4409 24.7938 18.3832 22.3084L18.2537 22.0042H17.9231H10.5497Z" fill="#0BA5EC" stroke="#0BA5EC"/>
</svg>
