<svg width="18" height="18" viewBox="0 0 18 18" fill="none" xmlns="http://www.w3.org/2000/svg">
<path d="M6.74984 5.10295H8.23444V11.8992C8.23444 11.9875 8.30676 12.0599 8.39516 12.0599H9.60051C9.68891 12.0599 9.76123 11.9875 9.76123 11.8992V5.10295H11.2498C11.3844 5.10295 11.4588 4.94826 11.3764 4.8438L9.12641 1.99514C9.11137 1.97593 9.09216 1.96039 9.07024 1.94971C9.04831 1.93902 9.02424 1.93347 8.99984 1.93347C8.97545 1.93347 8.95138 1.93902 8.92945 1.94971C8.90752 1.96039 8.88831 1.97593 8.87328 1.99514L6.62328 4.84179C6.54092 4.94826 6.61525 5.10295 6.74984 5.10295ZM16.3525 11.2965H15.1472C15.0588 11.2965 14.9865 11.3688 14.9865 11.4572V14.5509H3.01324V11.4572C3.01324 11.3688 2.94091 11.2965 2.85252 11.2965H1.64716C1.55877 11.2965 1.48645 11.3688 1.48645 11.4572V15.4349C1.48645 15.7904 1.77373 16.0777 2.12931 16.0777H15.8704C16.226 16.0777 16.5132 15.7904 16.5132 15.4349V11.4572C16.5132 11.3688 16.4409 11.2965 16.3525 11.2965Z" fill="#344054"/>
</svg>
