<svg width="226" height="99" viewBox="0 0 226 99" fill="none" xmlns="http://www.w3.org/2000/svg">
<path d="M40.4656 51.5805C39.3913 50.7777 38.6869 49.5914 38.5068 48.2819C38.3268 46.9723 38.6859 45.6466 39.5053 44.5953C40.3272 43.546 41.5417 42.8579 42.8824 42.682C44.223 42.5062 45.5803 42.8569 46.6565 43.6573C50.1834 46.3085 53.0303 49.7248 54.9723 53.6361C56.9873 57.5102 58.0374 61.7942 58.0371 66.1396C58.0371 73.6571 54.9798 80.8667 49.5378 86.1824C44.0958 91.4981 36.7148 94.4845 29.0186 94.4845C21.3224 94.4845 13.9414 91.4981 8.49939 86.1824C3.05736 80.8667 6.31272e-05 73.6571 6.31272e-05 66.1396C-0.00964958 61.6233 1.10157 57.1721 3.23853 53.1671C5.32454 49.1793 8.34962 45.732 12.0652 43.1085C13.1723 42.3432 14.5434 42.0345 15.8818 42.2493C17.2201 42.464 18.4181 43.185 19.2163 44.2561C19.9843 45.3266 20.2915 46.6488 20.0718 47.9383C19.8521 49.2278 19.1231 50.3815 18.0415 51.1514C15.5987 52.8469 13.6058 55.0878 12.2286 57.6875C10.9156 60.1721 10.1978 62.9156 10.1296 65.7109C10.0613 68.5061 10.6444 71.28 11.8346 73.8229C13.0249 76.3657 14.7912 78.6111 17.0002 80.3894C19.2092 82.1676 21.8031 83.4322 24.5858 84.0876C27.3686 84.743 30.2674 84.7721 33.0634 84.1726C35.8593 83.5732 38.4792 82.3609 40.7251 80.6273C42.971 78.8937 44.7842 76.6842 46.0277 74.1658C47.2711 71.6473 47.9123 68.8857 47.9029 66.0897C47.9174 63.2743 47.2635 60.4939 45.9925 57.9669C44.6496 55.4695 42.7632 53.2896 40.4656 51.5805ZM219.246 46.3316C220.205 47.2561 220.756 48.5098 220.783 49.8258C220.81 51.1417 220.309 52.4158 219.389 53.3767C218.453 54.3098 217.179 54.8471 215.842 54.8732C214.505 54.8993 213.211 54.4122 212.237 53.5164C210.449 51.8916 208.372 50.5997 206.108 49.7045C203.862 48.8338 201.465 48.3934 199.049 48.4072C194.91 48.4036 190.882 49.7172 187.576 52.1493C185.754 53.5072 184.185 55.1612 182.938 57.0389L220.155 58.9748H220.267C221.589 58.862 222.904 59.2562 223.934 60.0738C224.963 60.8915 225.627 62.0684 225.784 63.3555C225.875 63.9033 225.922 64.4571 225.927 65.012C225.983 65.5624 226.007 66.1154 225.998 66.6685C226.023 73.0208 223.861 79.1968 219.859 84.2039C215.856 89.211 210.247 92.7584 203.932 94.276C197.617 95.7937 190.963 95.1934 185.04 92.5716C179.116 89.9499 174.267 85.4589 171.271 79.8206C170.956 79.2459 170.761 78.6156 170.698 77.9666C170.635 77.3175 170.705 76.6628 170.904 76.0404C171.102 75.418 171.426 74.8405 171.856 74.3417C172.285 73.8428 172.813 73.4325 173.406 73.1347C174.599 72.5347 175.986 72.4171 177.266 72.8074C178.547 73.1976 179.619 74.0643 180.251 75.2203C181.613 77.7857 183.576 80.0012 185.979 81.6869C188.382 83.3727 191.158 84.4812 194.082 84.9225C197.006 85.3638 199.995 85.1255 202.807 84.2269C205.619 83.3283 208.174 81.7948 210.266 79.7507C213.346 76.8043 215.278 72.9017 215.731 68.7141L175.317 66.5188C174.655 66.4882 174.005 66.3299 173.406 66.0531C172.807 65.7763 172.269 65.3865 171.825 64.906C171.381 64.4256 171.038 63.864 170.817 63.2537C170.595 62.6434 170.5 61.9963 170.536 61.3498C170.549 60.835 170.649 60.326 170.832 59.843C170.903 59.5536 170.903 59.344 170.975 59.1245C172.747 53.1833 176.442 47.9629 181.507 44.2461C186.572 40.5292 192.734 38.516 199.069 38.5082C202.766 38.5247 206.429 39.2011 209.877 40.504C213.329 41.8604 216.489 43.8371 219.194 46.3316H219.246ZM90.1051 84.6304C91.3556 84.7648 92.5113 85.3451 93.3507 86.2603C94.1902 87.1755 94.6544 88.3611 94.6544 89.5898C94.6544 90.8186 94.1902 92.0042 93.3507 92.9194C92.5113 93.8345 91.3556 94.4149 90.1051 94.5493C85.4407 94.5474 80.8487 93.4218 76.7361 91.2721C72.6235 89.1224 69.1172 86.015 66.528 82.2253C63.9387 78.4356 62.3463 74.0805 61.8921 69.546C61.4378 65.0115 62.1355 60.4376 63.9236 56.2295C65.7116 52.0213 68.5346 48.309 72.1426 45.4213C75.7505 42.5336 80.0319 40.5597 84.6075 39.6746C89.1831 38.7895 93.9115 39.0205 98.3739 40.347C102.836 41.6736 106.895 44.0548 110.19 47.2796C111.41 48.4737 112.518 49.7729 113.5 51.1614C114.459 49.7562 115.568 48.455 116.81 47.2796C120.105 44.0602 124.162 41.684 128.622 40.3613C133.081 39.0387 137.806 38.8104 142.377 39.6968C146.949 40.5831 151.226 42.5567 154.831 45.4428C158.435 48.3289 161.255 52.0386 163.042 56.2433C164.828 60.448 165.526 65.0181 165.073 69.5491C164.62 74.08 163.031 78.432 160.445 82.2197C157.86 86.0075 154.358 89.1141 150.25 91.2647C146.142 93.4153 141.555 94.5435 136.894 94.5493C136.181 94.626 135.459 94.5549 134.775 94.3407C134.091 94.1264 133.462 93.7738 132.927 93.3058C132.392 92.8379 131.965 92.2651 131.672 91.6248C131.379 90.9845 131.228 90.2911 131.228 89.5898C131.228 88.8886 131.379 88.1952 131.672 87.5549C131.965 86.9146 132.392 86.3418 132.927 85.8738C133.462 85.4059 134.091 85.0533 134.775 84.839C135.459 84.6247 136.181 84.5536 136.894 84.6304C140.477 84.6126 143.974 83.5598 146.945 81.6045C149.917 79.6493 152.229 76.879 153.592 73.6425C154.954 70.406 155.306 66.8481 154.603 63.4167C153.899 59.9854 152.172 56.834 149.639 54.3595C147.106 51.8851 143.879 50.198 140.366 49.511C136.854 48.8239 133.211 49.1675 129.898 50.4985C126.584 51.8295 123.748 54.0883 121.746 56.9906C119.745 59.8928 118.667 63.3088 118.649 66.8082C118.649 68.1314 118.11 69.4005 117.153 70.3362C116.195 71.2719 114.895 71.7976 113.541 71.7976H113.398C112.043 71.7976 110.744 71.2719 109.786 70.3362C108.828 69.4005 108.29 68.1314 108.29 66.8082C108.306 64.4846 107.847 62.1813 106.938 60.0339C106.029 57.8865 104.689 55.9385 102.998 54.3047C100.884 52.2465 98.2831 50.7286 95.4259 49.885C92.5687 49.0415 89.5428 48.8983 86.6155 49.4682C83.6882 50.0381 80.9497 51.3034 78.6418 53.1524C76.334 55.0015 74.5279 57.3772 73.3832 60.0699C72.2384 62.7625 71.7903 65.6891 72.0783 68.591C72.3663 71.493 73.3816 74.281 75.0345 76.7087C76.6874 79.1364 78.927 81.1291 81.5555 82.5107C84.1839 83.8923 87.1203 84.6203 90.1051 84.6304Z" fill="#0BA5EC"/>
<path d="M114.235 99C107.615 91.0968 107.391 83.2634 114.235 75.7194C121.07 83.6825 120.998 91.456 114.235 99ZM90.7386 59.8431C92.2661 59.8431 93.7593 60.2856 95.0294 61.1145C96.2995 61.9435 97.2894 63.1217 97.8739 64.5002C98.4585 65.8787 98.6114 67.3955 98.3134 68.8589C98.0154 70.3223 97.2799 71.6665 96.1998 72.7215C95.1196 73.7766 93.7435 74.4951 92.2453 74.7862C90.7471 75.0772 89.1942 74.9278 87.783 74.3569C86.3717 73.7859 85.1655 72.8189 84.3169 71.5783C83.4682 70.3377 83.0153 68.8792 83.0153 67.3871C83.0153 66.3939 83.216 65.4105 83.6061 64.4932C83.9961 63.576 84.5678 62.743 85.2882 62.0421C86.0086 61.3412 86.8637 60.7861 87.8042 60.4088C88.7448 60.0314 89.7524 59.8392 90.7692 59.8431H90.7386ZM136.19 59.8431C137.717 59.8431 139.21 60.2856 140.48 61.1145C141.75 61.9435 142.74 63.1217 143.325 64.5002C143.909 65.8787 144.062 67.3955 143.764 68.8589C143.466 70.3223 142.731 71.6665 141.651 72.7215C140.571 73.7766 139.194 74.4951 137.696 74.7862C136.198 75.0772 134.645 74.9278 133.234 74.3569C131.823 73.7859 130.616 72.8189 129.768 71.5783C128.919 70.3377 128.466 68.8792 128.466 67.3871C128.466 66.3939 128.667 65.4105 129.057 64.4932C129.447 63.576 130.019 62.743 130.739 62.0421C131.46 61.3412 132.315 60.7861 133.255 60.4088C134.196 60.0314 135.203 59.8392 136.22 59.8431H136.19Z" fill="#0BA5EC"/>
<path d="M93.5887 66.3093C94.2988 66.323 94.9888 66.5412 95.5724 66.9366C96.156 67.3319 96.6071 67.8867 96.8691 68.5315C97.1311 69.1762 97.1924 69.8822 97.0452 70.5608C96.8981 71.2394 96.5491 71.8605 96.0421 72.3462C95.535 72.8319 94.8924 73.1605 94.1949 73.2909C93.4974 73.4212 92.776 73.3475 92.1212 73.079C91.4664 72.8104 90.9073 72.359 90.5141 71.7813C90.1209 71.2037 89.9111 70.5255 89.911 69.8318C89.9109 69.3633 90.0065 68.8994 90.1922 68.4674C90.3778 68.0355 90.6499 67.644 90.9924 67.316C91.3349 66.9879 91.7409 66.7299 92.1867 66.5571C92.6325 66.3842 93.1092 66.3 93.5887 66.3093ZM60.8976 23.9891C61.6535 24.1948 62.3205 24.635 62.7978 25.2434C63.2751 25.8519 63.5368 26.5954 63.5435 27.3619C63.5486 28.0193 63.363 28.6646 63.0084 29.2233C62.6537 29.782 62.1444 30.2313 61.5394 30.5191C60.9343 30.8069 60.2582 30.9216 59.5892 30.8499C58.9202 30.7782 58.2857 30.523 57.759 30.1138C57.2322 29.7046 56.8348 29.1582 56.6127 28.5376C56.3905 27.9171 56.3527 27.2478 56.5036 26.6072C56.6545 25.9665 56.988 25.3807 57.4654 24.9174C57.9429 24.4541 58.5448 24.1322 59.2017 23.9891V20.1772H60.8976V23.9891ZM58.0984 40.8733L59.12 33.1097H61.1019L62.6445 40.8733C61.204 42.3102 59.6512 42.1705 58.1801 40.8733H58.0984ZM82.7394 26.4339L116.646 33.4789L148.786 25.0768V38.149C143.048 35.8776 136.756 35.2937 130.683 36.4691C124.61 37.6445 119.021 40.528 114.603 44.765L113.5 45.8427L112.396 44.765C106.462 39.0364 98.4486 35.8331 90.1051 35.8539C87.6551 35.8595 85.2129 36.1238 82.8211 36.6422V26.4339H82.7394ZM58.6092 18.1714L51.5499 16.6646L110.169 0L174.305 16.6646L116.493 30.5352L65.413 20.0474L119.129 15.5869L58.6092 18.1714ZM132.971 66.3093C133.685 66.3093 134.382 66.5158 134.975 66.9029C135.568 67.29 136.03 67.8401 136.303 68.4838C136.576 69.1274 136.648 69.8357 136.508 70.519C136.369 71.2023 136.026 71.83 135.521 72.3226C135.017 72.8152 134.374 73.1507 133.675 73.2866C132.975 73.4225 132.25 73.3528 131.591 73.0862C130.932 72.8196 130.369 72.3681 129.973 71.7888C129.577 71.2095 129.365 70.5285 129.365 69.8318C129.368 69.3623 129.466 68.8981 129.654 68.466C129.842 68.0339 130.116 67.6426 130.46 67.3148C130.804 66.9871 131.211 66.7294 131.658 66.5567C132.105 66.3841 132.583 66.3 133.063 66.3093H132.971Z" fill="#344054"/>
</svg>
